<?xml version="1.0" standalone="no"?>
<!DOCTYPE svg PUBLIC "-//W3C//DTD SVG 20010904//EN"
 "http://www.w3.org/TR/2001/REC-SVG-20010904/DTD/svg10.dtd">
<svg version="1.0" xmlns="http://www.w3.org/2000/svg"
 width="940.000000pt" height="788.000000pt" viewBox="0 0 940.000000 788.000000"
 preserveAspectRatio="xMidYMid meet">

<g transform="translate(0.000000,788.000000) scale(0.100000,-0.100000)"
fill="#000000" stroke="none">
<path d="M5958 7147 l-538 -301 -2 -1078 -3 -1078 -300 312 -300 312 -3 -2449
c-1 -1346 0 -2450 2 -2452 2 -2 382 0 845 3 l841 7 0 3514 c0 1932 -1 3513 -2
3513 -2 -1 -245 -137 -540 -303z"/>
<path d="M6640 7340 c0 -60 0 -113 -1 -117 0 -4 36 -24 80 -44 l81 -38 0 120
0 120 -76 34 c-42 19 -78 35 -80 35 -2 0 -4 -49 -4 -110z"/>
<path d="M6938 7195 l-3 -116 62 -28 c112 -53 103 -59 103 71 l0 114 -47 23
c-27 13 -62 30 -80 37 l-32 14 -3 -115z"/>
<path d="M7240 7055 l0 -116 76 -35 c41 -19 77 -34 80 -34 2 0 4 49 4 110 l0
110 -80 40 -80 40 0 -115z"/>
<path d="M6638 6979 l3 -121 57 -25 c31 -14 67 -29 80 -34 l22 -9 0 119 0 118
-72 32 c-40 18 -77 35 -83 37 -6 3 -9 -39 -7 -117z"/>
<path d="M7840 6771 l0 -110 48 -22 c26 -11 62 -27 80 -35 l32 -14 0 108 0
108 -47 23 c-27 13 -63 30 -80 37 l-33 14 0 -109z"/>
<path d="M7240 6708 l0 -113 72 -30 c39 -16 75 -31 80 -33 4 -2 8 47 8 110 l0
113 -73 33 c-39 17 -75 32 -79 32 -5 0 -8 -51 -8 -112z"/>
<path d="M6640 6622 l0 -119 75 -32 c41 -17 77 -31 80 -31 3 0 5 53 5 118 l0
117 -72 30 c-39 17 -75 32 -80 33 -4 2 -8 -50 -8 -116z"/>
<path d="M6938 6496 c-2 -64 -2 -116 -1 -116 1 0 38 -16 82 -35 l81 -34 0 118
0 117 -67 28 c-38 16 -73 30 -80 33 -9 3 -13 -27 -15 -111z"/>
<path d="M7840 6441 l0 -108 75 -32 c41 -17 77 -31 80 -31 3 0 5 48 5 106 l0
105 -76 35 c-41 19 -77 34 -80 34 -2 0 -4 -49 -4 -109z"/>
<path d="M7240 6368 l0 -115 72 -29 c40 -16 76 -30 80 -32 5 -2 8 48 8 110 l0
114 -67 28 c-38 16 -74 30 -80 33 -10 4 -13 -22 -13 -109z"/>
<path d="M6640 6263 l0 -118 80 -32 81 -31 -3 120 -3 120 -68 29 c-38 16 -73
29 -78 29 -5 0 -9 -53 -9 -117z"/>
<path d="M7542 6239 l3 -110 70 -30 c38 -16 73 -29 77 -29 4 0 8 49 8 109 l0
108 -75 32 c-41 17 -77 31 -80 31 -3 0 -4 -50 -3 -111z"/>
<path d="M7840 6120 c0 -55 1 -103 1 -107 1 -5 37 -22 80 -40 l79 -31 0 107 0
108 -71 32 c-40 17 -76 31 -80 31 -5 0 -9 -45 -9 -100z"/>
<path d="M7240 6027 l0 -116 53 -19 c28 -11 64 -25 80 -31 l27 -11 0 114 0
114 -67 27 c-38 15 -74 29 -80 32 -10 4 -13 -22 -13 -110z"/>
<path d="M6640 5908 l5 -122 78 -28 77 -28 0 119 0 118 -67 26 c-38 14 -75 29
-83 32 -13 5 -14 -11 -10 -117z"/>
<path d="M6942 5795 l3 -117 78 -29 77 -28 0 117 0 117 -67 24 c-38 13 -74 26
-81 29 -10 3 -12 -21 -10 -113z"/>
<path d="M7840 5789 l5 -111 58 -23 c107 -44 97 -51 97 72 l0 108 -77 30 c-42
17 -79 31 -82 33 -3 1 -4 -48 -1 -109z"/>
<path d="M7242 5684 l3 -116 78 -28 77 -29 0 114 c0 98 -2 114 -17 120 -10 4
-46 18 -81 31 l-63 24 3 -116z"/>
<path d="M7542 5569 l3 -111 78 -28 77 -29 0 112 0 112 -73 28 c-41 15 -77 27
-81 27 -3 0 -5 -50 -4 -111z"/>
<path d="M6640 5552 l0 -120 68 -23 c37 -12 73 -24 80 -27 9 -3 12 24 12 115
l0 118 -67 24 c-38 13 -74 26 -80 29 -10 3 -13 -24 -13 -116z"/>
<path d="M7838 5461 l3 -110 47 -17 c26 -9 62 -23 80 -30 l33 -13 -3 110 -3
111 -75 29 c-41 16 -77 29 -80 29 -3 0 -4 -49 -2 -109z"/>
<path d="M6942 5443 l3 -116 69 -24 c39 -12 74 -23 78 -23 4 0 8 51 8 114 l0
113 -72 27 c-40 14 -77 26 -81 26 -4 0 -6 -52 -5 -117z"/>
<path d="M7242 5343 l3 -115 78 -28 78 -27 -3 114 -3 115 -78 28 -78 29 3
-116z"/>
<path d="M3330 5210 l0 -120 85 0 85 0 0 120 0 120 -85 0 -85 0 0 -120z"/>
<path d="M3630 5210 l0 -120 85 0 85 0 0 120 0 120 -85 0 -85 0 0 -120z"/>
<path d="M3930 5210 l0 -120 85 0 85 0 0 120 0 120 -85 0 -85 0 0 -120z"/>
<path d="M4530 5210 l0 -120 85 0 85 0 0 120 0 120 -85 0 -85 0 0 -120z"/>
<path d="M6640 5192 l0 -119 74 -21 c41 -12 77 -22 80 -22 4 0 5 52 4 117 l-3
116 -69 24 c-39 12 -74 23 -78 23 -4 0 -8 -53 -8 -118z"/>
<path d="M7840 5132 l0 -110 68 -23 c37 -12 73 -24 80 -27 9 -3 12 22 12 106
l0 110 -67 23 c-38 12 -74 24 -80 27 -10 3 -13 -22 -13 -106z"/>
<path d="M6940 5096 l0 -114 68 -23 c37 -12 73 -24 80 -27 10 -3 12 21 10 113
l-3 118 -69 24 c-39 12 -74 23 -78 23 -4 0 -8 -51 -8 -114z"/>
<path d="M7540 4901 l0 -109 68 -23 c37 -12 73 -24 80 -27 10 -3 12 20 10 108
l-3 113 -69 24 c-39 12 -74 23 -78 23 -4 0 -8 -49 -8 -109z"/>
<path d="M3330 4850 l0 -120 85 0 85 0 0 120 0 120 -85 0 -85 0 0 -120z"/>
<path d="M3630 4850 l0 -120 85 0 85 0 0 120 0 120 -85 0 -85 0 0 -120z"/>
<path d="M4230 4850 l0 -120 85 0 85 0 0 120 0 120 -85 0 -85 0 0 -120z"/>
<path d="M4530 4850 l0 -120 85 0 85 0 0 120 0 120 -85 0 -85 0 0 -120z"/>
<path d="M6638 4839 l-3 -120 35 -9 c19 -6 56 -16 83 -24 l47 -15 0 119 0 118
-52 17 c-29 9 -65 20 -80 25 l-27 9 -3 -120z"/>
<path d="M7840 4802 l0 -109 63 -18 c34 -9 70 -20 80 -22 16 -5 17 3 15 102
l-3 108 -69 24 c-39 12 -74 23 -78 23 -4 0 -8 -49 -8 -108z"/>
<path d="M7240 4658 l0 -115 74 -21 c41 -12 77 -22 80 -22 3 0 6 51 6 113 l0
112 -63 19 c-34 10 -70 21 -79 23 -16 5 -18 -5 -18 -109z"/>
<path d="M7540 4567 l0 -112 68 -19 c37 -11 73 -21 80 -24 10 -3 12 20 10 108
l-3 112 -75 24 c-41 13 -76 24 -77 24 -2 0 -3 -51 -3 -113z"/>
<path d="M3330 4490 l0 -121 83 3 82 3 3 118 3 117 -86 0 -85 0 0 -120z"/>
<path d="M3930 4490 l0 -121 83 3 82 3 3 118 3 117 -86 0 -85 0 0 -120z"/>
<path d="M4230 4490 l0 -121 83 3 82 3 3 118 3 117 -86 0 -85 0 0 -120z"/>
<path d="M4530 4490 l0 -120 85 0 85 0 0 120 0 120 -85 0 -85 0 0 -120z"/>
<path d="M6638 4481 l3 -119 62 -17 c34 -9 70 -19 80 -21 15 -5 17 5 17 114
l0 119 -79 21 c-43 12 -80 22 -82 22 -2 0 -3 -53 -1 -119z"/>
<path d="M7838 4480 l-3 -111 70 -20 c39 -11 76 -22 83 -24 9 -3 12 22 12 105
l0 109 -72 22 c-40 11 -76 23 -80 25 -4 3 -8 -45 -10 -106z"/>
<path d="M6940 4401 l0 -120 43 -11 c23 -6 50 -13 60 -16 9 -2 26 -7 37 -10
19 -5 20 -1 20 110 l0 115 -72 22 c-40 11 -76 23 -80 26 -5 2 -8 -50 -8 -116z"/>
<path d="M7540 4230 l0 -109 43 -11 c23 -6 55 -15 71 -20 16 -6 33 -10 37 -10
5 0 9 49 9 110 l0 109 -69 21 c-37 11 -73 20 -80 20 -7 0 -11 -34 -11 -110z"/>
<path d="M3330 4140 l0 -120 85 0 85 0 0 120 0 120 -85 0 -85 0 0 -120z"/>
<path d="M3630 4140 l0 -120 85 0 85 0 0 120 0 120 -85 0 -85 0 0 -120z"/>
<path d="M3930 4140 l0 -120 85 0 85 0 0 120 0 120 -85 0 -85 0 0 -120z"/>
<path d="M4530 4140 l0 -120 85 0 85 0 0 120 0 120 -85 0 -85 0 0 -120z"/>
<path d="M7838 4151 l3 -110 52 -15 c29 -8 64 -18 80 -21 l27 -7 0 109 0 109
-67 18 c-38 10 -75 20 -83 23 -13 3 -15 -12 -12 -106z"/>
<path d="M2400 4130 l0 -120 45 0 45 0 0 120 0 120 -45 0 -45 0 0 -120z"/>
<path d="M2760 4131 l0 -121 50 0 51 0 -3 118 -3 117 -47 3 -48 3 0 -120z"/>
<path d="M2940 4130 l0 -120 50 0 50 0 0 120 0 120 -50 0 -50 0 0 -120z"/>
<path d="M1832 3943 l-421 -298 -1 -1617 0 -1618 425 0 425 0 0 1915 c0 1053
-1 1915 -3 1915 -2 0 -193 -134 -425 -297z"/>
<path d="M6640 4122 l0 -118 73 -17 c39 -10 76 -17 80 -17 4 0 6 52 5 117 l-3
116 -65 19 c-36 10 -71 18 -77 18 -10 0 -13 -30 -13 -118z"/>
<path d="M6940 4049 l0 -117 80 -20 80 -20 0 117 0 116 -80 21 -80 20 0 -117z"/>
<path d="M7240 3974 l0 -113 43 -11 c23 -6 50 -13 60 -16 9 -2 26 -7 37 -10
19 -5 20 -1 20 109 l0 115 -80 20 -80 20 0 -114z"/>
<path d="M7540 3897 l0 -114 58 -12 c31 -7 67 -15 80 -18 22 -5 22 -4 22 105
0 97 -2 111 -17 116 -10 3 -38 10 -63 16 -25 6 -53 13 -62 16 -16 5 -18 -5
-18 -109z"/>
<path d="M7838 3822 l3 -110 80 -20 79 -20 0 108 0 109 -55 15 c-30 9 -67 19
-82 22 l-28 6 3 -110z"/>
<path d="M3330 3780 l0 -120 85 0 85 0 0 120 0 120 -85 0 -85 0 0 -120z"/>
<path d="M3630 3780 l0 -120 85 0 85 0 0 120 0 120 -85 0 -85 0 0 -120z"/>
<path d="M3930 3780 l0 -120 85 0 85 0 0 120 0 120 -85 0 -85 0 0 -120z"/>
<path d="M4230 3780 l0 -120 85 0 85 0 0 120 0 120 -85 0 -85 0 0 -120z"/>
<path d="M4530 3780 l0 -120 85 0 85 0 0 120 0 120 -85 0 -85 0 0 -120z"/>
<path d="M2390 3770 l0 -120 50 0 50 0 0 120 0 120 -50 0 -50 0 0 -120z"/>
<path d="M2570 3770 l0 -120 50 0 50 0 0 120 0 120 -50 0 -50 0 0 -120z"/>
<path d="M2750 3770 l0 -120 50 0 50 0 0 120 0 120 -50 0 -50 0 0 -120z"/>
<path d="M2930 3770 l0 -120 50 0 50 0 0 120 0 120 -50 0 -50 0 0 -120z"/>
<path d="M3118 3770 l-3 -120 48 0 47 0 0 120 0 120 -44 0 -45 0 -3 -120z"/>
<path d="M6640 3731 l0 -118 58 -12 c31 -6 67 -14 80 -17 22 -6 22 -6 22 114
l0 120 -71 16 c-39 9 -75 16 -80 16 -5 0 -9 -53 -9 -119z"/>
<path d="M6938 3665 l-3 -115 75 -16 c41 -9 78 -19 83 -21 4 -2 7 49 7 115 l0
118 -72 17 c-40 10 -76 17 -80 17 -4 0 -8 -52 -10 -115z"/>
<path d="M7240 3596 l0 -113 58 -12 c31 -6 67 -14 80 -17 22 -6 22 -6 22 108
l0 114 -72 17 c-40 10 -76 17 -80 17 -5 0 -8 -51 -8 -114z"/>
<path d="M7540 3530 l0 -109 38 -10 c20 -5 56 -13 80 -19 l42 -10 0 112 0 112
-72 17 c-40 10 -76 17 -80 17 -5 0 -8 -49 -8 -110z"/>
<path d="M7840 3463 l0 -110 58 -12 c31 -7 67 -15 80 -18 22 -5 22 -4 22 104
l0 110 -57 12 c-32 7 -68 15 -80 18 -23 5 -23 4 -23 -104z"/>
<path d="M3630 3420 l0 -120 85 0 85 0 0 120 0 120 -85 0 -85 0 0 -120z"/>
<path d="M4230 3420 l0 -120 85 0 85 0 0 120 0 120 -85 0 -85 0 0 -120z"/>
<path d="M4530 3420 l0 -120 85 0 85 0 0 120 0 120 -85 0 -85 0 0 -120z"/>
<path d="M2390 3410 l0 -120 45 0 45 0 0 120 0 120 -45 0 -45 0 0 -120z"/>
<path d="M2570 3410 l0 -120 44 0 45 0 3 120 3 120 -47 0 -48 0 0 -120z"/>
<path d="M2930 3410 l0 -120 50 0 50 0 0 120 0 120 -50 0 -50 0 0 -120z"/>
<path d="M3110 3410 l0 -120 50 0 50 0 0 120 0 120 -50 0 -50 0 0 -120z"/>
<path d="M6638 3378 c-2 -98 0 -119 12 -123 19 -5 131 -25 142 -25 4 0 8 53 8
118 l0 118 -79 15 -80 15 -3 -118z"/>
<path d="M6940 3316 c0 -101 2 -115 18 -120 15 -4 130 -26 139 -26 2 0 3 52 3
115 l0 115 -27 6 c-16 3 -44 10 -63 15 -72 18 -70 22 -70 -105z"/>
<path d="M7240 3256 c0 -64 1 -116 3 -116 9 0 124 -22 140 -26 15 -5 17 5 17
110 l0 115 -57 11 c-32 6 -68 14 -80 17 -23 5 -23 4 -23 -111z"/>
<path d="M7540 3197 l0 -115 73 -12 c39 -7 75 -14 80 -17 4 -2 7 47 7 110 l0
114 -65 11 c-35 7 -71 15 -80 18 -13 5 -15 -10 -15 -109z"/>
<path d="M7840 3133 l0 -110 69 -12 c39 -6 75 -11 80 -11 7 0 11 38 11 105 l0
104 -37 10 c-21 6 -57 13 -80 17 l-43 7 0 -110z"/>
<path d="M3330 3070 l0 -120 85 0 85 0 0 120 0 120 -85 0 -85 0 0 -120z"/>
<path d="M3630 3070 l0 -120 85 0 85 0 0 120 0 120 -85 0 -85 0 0 -120z"/>
<path d="M3930 3070 l0 -120 85 0 85 0 0 120 0 120 -85 0 -85 0 0 -120z"/>
<path d="M4530 3070 l0 -120 85 0 85 0 0 120 0 120 -85 0 -85 0 0 -120z"/>
<path d="M2380 3050 l0 -120 50 0 50 0 0 120 0 120 -50 0 -50 0 0 -120z"/>
<path d="M2560 3050 l0 -120 50 0 50 0 0 120 0 120 -50 0 -50 0 0 -120z"/>
<path d="M2740 3050 l0 -120 50 0 50 0 0 120 0 120 -50 0 -50 0 0 -120z"/>
<path d="M3108 3050 l3 -120 45 0 44 0 0 120 0 120 -47 0 -48 0 3 -120z"/>
<path d="M6638 3020 l3 -119 32 -6 c18 -3 53 -9 80 -14 l47 -8 0 118 c0 115
-1 119 -22 123 -58 12 -130 26 -136 26 -4 0 -6 -54 -4 -120z"/>
<path d="M6940 2965 l0 -114 33 -6 c17 -3 53 -9 80 -14 l47 -8 0 117 0 117
-69 12 c-39 6 -75 11 -80 11 -7 0 -11 -41 -11 -115z"/>
<path d="M7540 2861 c0 -122 -5 -114 80 -126 25 -4 53 -9 63 -11 15 -5 17 5
17 108 l0 114 -70 12 c-39 7 -75 12 -80 12 -6 0 -10 -44 -10 -109z"/>
<path d="M7838 2809 l-3 -109 25 -4 c14 -3 43 -8 65 -12 22 -3 48 -8 58 -11
15 -4 17 6 17 106 0 61 -3 111 -7 111 -5 0 -40 6 -80 14 l-72 13 -3 -108z"/>
<path d="M3330 2710 l0 -120 85 0 85 0 0 120 0 120 -85 0 -85 0 0 -120z"/>
<path d="M3630 2710 l0 -120 85 0 85 0 0 120 0 120 -85 0 -85 0 0 -120z"/>
<path d="M3930 2710 l0 -120 85 0 85 0 0 120 0 120 -85 0 -85 0 0 -120z"/>
<path d="M4230 2710 l0 -120 85 0 85 0 0 120 0 120 -85 0 -85 0 0 -120z"/>
<path d="M4530 2710 l0 -120 85 0 85 0 0 120 0 120 -85 0 -85 0 0 -120z"/>
<path d="M2380 2693 l0 -123 45 0 45 0 0 119 0 119 -45 4 -45 3 0 -122z"/>
<path d="M2560 2693 l0 -123 45 0 45 0 0 119 0 119 -45 4 -45 3 0 -122z"/>
<path d="M3100 2690 l0 -120 50 0 50 0 0 120 0 120 -50 0 -50 0 0 -120z"/>
<path d="M6640 2661 l0 -119 58 -7 c31 -3 67 -9 80 -12 22 -5 22 -5 22 115 l0
120 -63 11 c-105 18 -97 27 -97 -108z"/>
<path d="M6940 2620 l0 -118 33 -5 c17 -3 53 -9 80 -13 l47 -6 0 115 0 116
-37 6 c-21 4 -57 10 -80 14 l-43 9 0 -118z"/>
<path d="M7242 2571 l3 -116 78 -11 77 -10 0 113 c0 62 -1 113 -2 114 -2 0
-38 6 -81 13 l-78 13 3 -116z"/>
<path d="M7838 2482 c4 -125 -5 -114 105 -127 l57 -7 0 109 0 110 -53 6 c-29
4 -66 9 -83 13 l-29 6 3 -110z"/>
<path d="M3330 2350 l0 -120 85 0 85 0 0 120 0 120 -85 0 -85 0 0 -120z"/>
<path d="M3930 2350 l0 -120 85 0 85 0 0 120 0 120 -85 0 -85 0 0 -120z"/>
<path d="M4530 2350 l0 -120 85 0 85 0 0 120 0 120 -85 0 -85 0 0 -120z"/>
<path d="M2370 2340 l0 -120 50 0 50 0 0 120 0 120 -50 0 -50 0 0 -120z"/>
<path d="M2730 2340 l0 -120 50 0 50 0 0 120 0 120 -50 0 -50 0 0 -120z"/>
<path d="M2917 2453 c-4 -3 -7 -57 -7 -120 l0 -113 50 0 50 0 0 120 0 120 -43
0 c-24 0 -47 -3 -50 -7z"/>
<path d="M3098 2340 l-3 -120 48 0 47 0 0 120 0 120 -44 0 -45 0 -3 -120z"/>
<path d="M6638 2311 l-3 -121 25 -4 c14 -3 51 -8 83 -12 l57 -6 0 120 0 120
-67 7 c-36 4 -72 9 -79 12 -10 4 -14 -24 -16 -116z"/>
<path d="M6940 2269 l0 -117 53 -7 c28 -3 64 -8 80 -11 l27 -6 0 119 0 119
-80 10 -80 9 0 -116z"/>
<path d="M7240 2228 l0 -115 61 -7 c108 -11 99 -21 99 103 0 81 -3 110 -13
114 -8 3 -44 8 -80 12 l-67 7 0 -114z"/>
<path d="M7540 2192 l0 -110 28 -6 c15 -3 51 -8 80 -11 l52 -7 0 110 c0 126 7
116 -97 127 l-63 7 0 -110z"/>
<path d="M7838 2152 l3 -110 62 -7 c34 -3 70 -9 80 -11 15 -5 17 5 17 105 l0
109 -27 6 c-16 3 -53 8 -83 11 l-55 7 3 -110z"/>
<path d="M3330 2000 l0 -120 85 0 86 0 -3 118 -3 117 -82 3 -83 3 0 -121z"/>
<path d="M3630 2000 l0 -120 85 0 86 0 -3 118 -3 117 -82 3 -83 3 0 -121z"/>
<path d="M4230 2000 l0 -120 85 0 86 0 -3 118 -3 117 -82 3 -83 3 0 -121z"/>
<path d="M4530 2000 l0 -120 85 0 86 0 -3 118 -3 117 -82 3 -83 3 0 -121z"/>
<path d="M2370 1980 l0 -120 45 0 45 0 0 120 0 120 -45 0 -45 0 0 -120z"/>
<path d="M2550 1980 l0 -120 48 0 47 0 -3 120 -3 120 -45 0 -44 0 0 -120z"/>
<path d="M2910 1980 l0 -120 50 0 50 0 0 120 0 120 -50 0 -50 0 0 -120z"/>
<path d="M3090 1980 l0 -120 50 0 50 0 0 120 0 120 -50 0 -50 0 0 -120z"/>
<path d="M6638 1951 c3 -117 4 -121 25 -122 12 0 48 -4 80 -8 l57 -7 0 117 c0
134 8 123 -100 134 l-65 6 3 -120z"/>
<path d="M7240 1888 l0 -115 61 -7 c109 -11 99 -21 99 109 l0 115 -27 0 c-16
0 -52 3 -80 6 l-53 7 0 -115z"/>
<path d="M7540 1855 l0 -115 28 0 c15 0 51 -3 80 -6 l52 -7 0 111 0 111 -47 6
c-27 3 -63 8 -80 11 l-33 5 0 -116z"/>
<path d="M7840 1820 l0 -110 34 0 c18 0 54 -3 80 -6 l46 -7 0 110 0 110 -61 7
c-108 11 -99 21 -99 -104z"/>
<path d="M2400 1650 l0 -120 50 0 50 0 0 120 0 120 -50 0 -50 0 0 -120z"/>
<path d="M2760 1650 l0 -120 50 0 50 0 0 120 0 120 -50 0 -50 0 0 -120z"/>
<path d="M2940 1650 l0 -120 50 0 50 0 0 120 0 120 -50 0 -50 0 0 -120z"/>
<path d="M6640 1590 l0 -120 49 0 c27 0 63 -3 80 -6 l31 -6 0 119 0 120 -46 7
c-26 3 -62 6 -80 6 l-34 0 0 -120z"/>
<path d="M6940 1568 l0 -118 34 0 c18 0 54 -3 80 -6 l46 -7 0 116 c0 133 8
122 -102 130 l-58 4 0 -119z"/>
<path d="M7540 1521 l0 -108 38 -7 c20 -3 56 -6 80 -6 l42 0 0 109 0 108 -46
7 c-26 3 -62 6 -80 6 l-34 0 0 -109z"/>
<path d="M7838 1499 l-3 -108 29 -5 c16 -3 53 -6 82 -6 l54 0 0 105 0 104 -32
5 c-18 3 -54 7 -80 9 l-47 4 -3 -108z"/>
<path d="M2400 1290 l0 -120 45 0 45 0 0 120 0 120 -45 0 -45 0 0 -120z"/>
<path d="M2580 1290 l0 -120 45 0 45 0 0 120 0 120 -45 0 -45 0 0 -120z"/>
<path d="M2760 1290 l0 -120 45 0 45 0 0 120 0 120 -45 0 -45 0 0 -120z"/>
<path d="M2940 1290 l0 -120 45 0 45 0 0 120 0 120 -45 0 -45 0 0 -120z"/>
<path d="M3120 1290 l0 -120 45 0 45 0 0 120 0 120 -45 0 -45 0 0 -120z"/>
<path d="M6638 1242 l-3 -120 35 -6 c19 -3 56 -6 83 -6 l47 0 0 120 0 120 -57
0 c-32 0 -68 3 -80 6 -21 6 -22 4 -25 -114z"/>
<path d="M6940 1222 l0 -120 80 -4 80 -3 0 118 0 117 -49 0 c-27 0 -63 3 -80
6 l-31 7 0 -121z"/>
<path d="M7240 1208 l0 -115 53 -7 c28 -3 64 -6 80 -6 l27 0 0 115 0 115 -42
0 c-24 0 -60 3 -80 6 l-38 7 0 -115z"/>
<path d="M7540 1186 l0 -116 80 0 80 0 0 110 0 110 -42 0 c-24 0 -60 3 -80 6
l-38 7 0 -117z"/>
<path d="M7838 1171 l-3 -111 30 0 c17 0 54 -3 83 -6 l52 -7 0 112 0 111 -34
0 c-18 0 -54 3 -79 6 l-46 7 -3 -112z"/>
<path d="M2390 940 l0 -120 50 0 50 0 0 120 0 120 -50 0 -50 0 0 -120z"/>
<path d="M2570 940 l0 -120 50 0 50 0 0 120 0 120 -50 0 -50 0 0 -120z"/>
<path d="M2930 940 l0 -120 50 0 50 0 0 120 0 120 -50 0 -50 0 0 -120z"/>
<path d="M3110 940 l0 -120 50 0 50 0 0 120 0 120 -50 0 -50 0 0 -120z"/>
<path d="M6638 880 l3 -120 80 0 79 0 0 114 c0 131 4 126 -105 126 l-60 0 3
-120z"/>
<path d="M6940 871 l0 -121 80 0 80 0 0 115 c0 105 -2 115 -19 115 -10 0 -46
3 -80 6 l-61 7 0 -122z"/>
<path d="M7838 840 l3 -110 80 0 79 0 0 110 0 110 -82 0 -83 0 3 -110z"/>
<path d="M2388 580 l-3 -120 48 0 47 0 0 120 0 120 -44 0 -45 0 -3 -120z"/>
<path d="M2570 580 l0 -120 45 0 45 0 0 120 0 120 -45 0 -45 0 0 -120z"/>
<path d="M2750 580 l0 -120 45 0 45 0 0 120 0 120 -45 0 -45 0 0 -120z"/>
<path d="M3110 580 l0 -120 45 0 45 0 0 120 0 120 -45 0 -45 0 0 -120z"/>
</g>
</svg>
